# xmcd
#
# Track frame offsets: 
#        150
#        23369
#        43993
#        59606
#        78561
#        90770
#        103186
#        117014
#        126160
#        147626
#        161550
#        183055
#        210596
#
# Disc length: 3435 seconds
#
# Revision: 0
# Processed by: cddbd v1.5.2PL0 Copyright (c) Steve Scherf et al.
# Submitted via: ExactAudioCopy v0.99pb3
#
DISCID=aa0d690d
DTITLE=Shakin' Dudi Orchestra - Swing Revival
DYEAR=2006
DGENRE=Blues Rock, Boogie, Neo Swing, Rock'n'Roll
TTITLE0=Gdy Wracam Pozno
TTITLE1=Tak Dobrze Mi Tu
TTITLE2=Mniam
TTITLE3=Gdybys Miala
TTITLE4=To My Ulani
TTITLE5=Plac, Plac, Plac
TTITLE6=Taka Przebojowa
TTITLE7=Za Dziesiec Minut Trzynasta
TTITLE8=Oh Ziuta!
TTITLE9=Au Szalalala
TTITLE10=Every Day I Have The Blues
TTITLE11=Tell Me Pretty Baby
TTITLE12=Something Must Have Changed
EXTD=
EXTT0=
EXTT1=
EXTT2=
EXTT3=
EXTT4=
EXTT5=
EXTT6=
EXTT7=
EXTT8=
EXTT9=
EXTT10=
EXTT11=
EXTT12=
PLAYORDER=
